<svg xmlns="http://www.w3.org/2000/svg" viewBox="0 0 284.93409 107.78398"><defs><style>.cls-1{fill:#38a3a5;}.cls-2{fill:#63c196;}.cls-3{fill:#cbe6c6;}.cls-4{fill:#91cd91;}.cls-5{fill:#a7a9ac;}</style></defs><g id="Layer_2" data-name="Layer 2"><g id="Layer_1-2" data-name="Layer 1"><rect class="cls-1" width="17.05933" height="107.78398" rx="8.52966"/><path class="cls-2" d="M4.26627,106.25185l0,0A8.52966,8.52966,0,0,1,1.14418,94.60011L44.66874,20.3556a8.52965,8.52965,0,0,1,11.65173-3.12207h0a8.52966,8.52966,0,0,1,3.12207,11.65173L15.918,103.12977A8.52966,8.52966,0,0,1,4.26627,106.25185Z"/><path class="cls-3" d="M75.45457,90.19653l0,0a8.52965,8.52965,0,0,1-11.78065,2.59352l-27.51875-20.771a8.52965,8.52965,0,0,1-2.59352-11.78065l0,0A8.52966,8.52966,0,0,1,45.3423,57.64492l27.51875,20.771A8.52965,8.52965,0,0,1,75.45457,90.19653Z"/><path class="cls-4" d="M37.47788,72.45663h0a8.52965,8.52965,0,0,1-5.28793-10.842L43.9898,21.84431a8.52966,8.52966,0,0,1,10.84195-5.28793l0,0a8.52966,8.52966,0,0,1,5.28793,10.842L48.31983,67.1687A8.52964,8.52964,0,0,1,37.47788,72.45663Z"/><path class="cls-1" d="M113.03077,40.84862a19.31629,19.31629,0,0,1,10.81445,3.21826q4.90722,3.21974,6.70117,10.07666l-1.37305.94971.5293-2.00488a15.06364,15.06364,0,0,1,4.80078-6.2251,28.637,28.637,0,0,1,7.70117-4.37891,23.12369,23.12369,0,0,1,8.28321-1.63574,18.4663,18.4663,0,0,1,10.44726,2.74365,16.30268,16.30268,0,0,1,6.06641,7.333,26.34124,26.34124,0,0,1,1.95117,10.39356V92.02343a2.11508,2.11508,0,0,1-.58008,1.477,2.16312,2.16312,0,0,1-3.05859,0,2.10835,2.10835,0,0,1-.582-1.477V61.74071a22.82944,22.82944,0,0,0-1.5293-8.49414,13.31527,13.31527,0,0,0-4.74805-6.11963,14.261,14.261,0,0,0-8.38867-2.26855,18.877,18.877,0,0,0-8.86328,2.26855,20.34051,20.34051,0,0,0-7.12305,6.11963,14.14174,14.14174,0,0,0-2.79492,8.49414V92.02343a2.12376,2.12376,0,0,1-.58008,1.477,2.16548,2.16548,0,0,1-3.06054,0,2.11508,2.11508,0,0,1-.58008-1.477V61.21288a22.72454,22.72454,0,0,0-1.42383-8.23,12.81977,12.81977,0,0,0-4.48437-5.90869,13.55644,13.55644,0,0,0-8.125-2.21582,18.095,18.095,0,0,0-8.59961,2.21582A20.42557,20.42557,0,0,0,97.52,52.9829a13.47006,13.47006,0,0,0-2.74316,8.23V92.02343a2.16539,2.16539,0,0,1-2.11035,2.11035,1.974,1.974,0,0,1-1.53027-.6333,2.11074,2.11074,0,0,1-.58008-1.477V43.59227a2.16266,2.16266,0,0,1,2.11035-2.11035,1.97606,1.97606,0,0,1,1.5293.63281,2.125,2.125,0,0,1,.58105,1.47754v11.501l-3.166,5.38135a15.47294,15.47294,0,0,1,1.794-7.1753,22.7818,22.7818,0,0,1,4.80078-6.27783,24.3575,24.3575,0,0,1,6.8584-4.48437A19.66391,19.66391,0,0,1,113.03077,40.84862Z"/><path class="cls-1" d="M189.106,94.13378a1.97542,1.97542,0,0,1-1.53027-.6333,2.11508,2.11508,0,0,1-.58008-1.477V18.16307a2.11963,2.11963,0,0,1,.58008-1.47754,2.16668,2.16668,0,0,1,3.06055,0,2.124,2.124,0,0,1,.58007,1.47754V92.02343a2.11942,2.11942,0,0,1-.58007,1.477A1.9783,1.9783,0,0,1,189.106,94.13378Zm36.61426-53.28516a2.0239,2.0239,0,0,1,1.47656.6333,2.14835,2.14835,0,0,1,.63379,1.58252,2.00432,2.00432,0,0,1-.73926,1.583L190.478,75.1411l-.21094-5.06494,34.08106-28.59424A1.91379,1.91379,0,0,1,225.72022,40.84862Zm.63281,53.28516a2.211,2.211,0,0,1-1.583-.73877L199.23584,66.17235l3.165-2.74365,25.42969,27.01221a2.14752,2.14752,0,0,1,.63281,1.58252,1.74414,1.74414,0,0,1-.84472,1.583A2.80249,2.80249,0,0,1,226.353,94.13378Z"/><path class="cls-5" d="M251.25928,71.71483a.84523.84523,0,1,1,0,1.69043H240.67237a.923.923,0,0,1-.84571-.84521.76823.76823,0,0,1,.26758-.62305.88558.88558,0,0,1,.57813-.22217Zm-2.0459-10.76562a10.8056,10.8056,0,0,1,1.26758.08935,4.12613,4.12613,0,0,1,1.29.35547.85508.85508,0,0,1,.55664.80078.9209.9209,0,0,1-.24512.60059.75587.75587,0,0,1-.60058.28906,2.80082,2.80082,0,0,1-1.06738-.2666,3.46388,3.46388,0,0,0-1.37891-.26709,3.08145,3.08145,0,0,0-1.5791.40039,2.6288,2.6288,0,0,0-1.06836,1.22314,5.09088,5.09088,0,0,0-.37793,2.11329V92.75585a.912.912,0,0,1-.88965.88965.83055.83055,0,0,1-.64453-.26709.88712.88712,0,0,1-.24512-.62256V66.28759a4.7721,4.7721,0,0,1,4.98242-5.33838Z"/><path class="cls-5" d="M283.99952,70.647a1.11115,1.11115,0,0,1,.6455.2002.73008.73008,0,0,1,.28907.645,1.973,1.973,0,0,1-.02246.20019.8464.8464,0,0,1-.06641.24463l-6.89551,21.13037a1.11343,1.11343,0,0,1-.35547.42236.83266.83266,0,0,1-.48925.15577.94058.94058,0,0,1-.84571-.57813L269.4087,77.63085l.667.22265-6.04981,15.21387a.83276.83276,0,0,1-.84472.57813.934.934,0,0,1-.51172-.15577.78338.78338,0,0,1-.334-.42236L255.21827,71.937a1.45127,1.45127,0,0,1-.08887-.44482.76588.76588,0,0,1,.2666-.62256,1.00848,1.00848,0,0,1,.668-.22266.83968.83968,0,0,1,.48926.15576.82868.82868,0,0,1,.31152.42237l6.62793,20.41845h-.75684l6.31739-15.6582a.833.833,0,0,1,.84472-.57861.94215.94215,0,0,1,.51172.15576.78621.78621,0,0,1,.334.42285L277.54932,91.688h-.88965l6.53907-20.46289A.80536.80536,0,0,1,283.99952,70.647Z"/></g></g></svg>