<svg xmlns="http://www.w3.org/2000/svg" viewBox="0 0 32 32"><defs><style>.cls-1{fill:#38a3a5;}.cls-2{fill:#63c196;}.cls-3{fill:#cbe6c6;}.cls-4{fill:#91cd91;}.cls-5{fill:none;}</style></defs><g id="Layer_2" data-name="Layer 2"><g id="Layer_1-2" data-name="Layer 1"><rect class="cls-1" x="5.95882" y="0.50404" width="4.9052" height="30.99192" rx="2.4526"/><path class="cls-2" d="M7.18554,31.05542l0,0a2.45258,2.45258,0,0,1-.89771-3.3503L18.80276,6.357a2.4526,2.4526,0,0,1,3.3503-.89771h0a2.45259,2.45259,0,0,1,.89771,3.35031L10.53584,30.1577A2.45259,2.45259,0,0,1,7.18554,31.05542Z"/><path class="cls-3" d="M27.65483,26.43891v0a2.4526,2.4526,0,0,1-3.38738.74573l-7.91267-5.97242a2.4526,2.4526,0,0,1-.74573-3.38738v0a2.4526,2.4526,0,0,1,3.38738-.74573l7.91267,5.97243A2.45259,2.45259,0,0,1,27.65483,26.43891Z"/><path class="cls-4" d="M16.73511,21.338h0a2.4526,2.4526,0,0,1-1.52048-3.11747L18.60754,6.7851A2.45258,2.45258,0,0,1,21.725,5.26462h0a2.45259,2.45259,0,0,1,1.52047,3.11747l-3.3929,11.43546A2.4526,2.4526,0,0,1,16.73511,21.338Z"/><rect class="cls-5" width="32" height="32"/></g></g></svg>