<svg xmlns="http://www.w3.org/2000/svg" viewBox="0 0 228.46337 107.78398"><defs><style>.cls-1{fill:#38a3a5;}.cls-2{fill:#63c196;}.cls-3{fill:#cbe6c6;}.cls-4{fill:#91cd91;}</style></defs><g id="Layer_2" data-name="Layer 2"><g id="Layer_1-2" data-name="Layer 1"><rect class="cls-1" width="17.05933" height="107.78398" rx="8.52966"/><path class="cls-2" d="M4.26627,106.25185l0,0A8.52966,8.52966,0,0,1,1.14418,94.60011L44.66874,20.3556a8.52965,8.52965,0,0,1,11.65173-3.12207h0a8.52966,8.52966,0,0,1,3.12207,11.65173L15.918,103.12977A8.52966,8.52966,0,0,1,4.26627,106.25185Z"/><path class="cls-3" d="M75.45457,90.19653l0,0a8.52965,8.52965,0,0,1-11.78065,2.59352l-27.51875-20.771a8.52965,8.52965,0,0,1-2.59352-11.78065l0,0A8.52966,8.52966,0,0,1,45.3423,57.64492l27.51875,20.771A8.52965,8.52965,0,0,1,75.45457,90.19653Z"/><path class="cls-4" d="M37.47788,72.45663h0a8.52965,8.52965,0,0,1-5.28793-10.842L43.9898,21.84431a8.52966,8.52966,0,0,1,10.84195-5.28793l0,0a8.52966,8.52966,0,0,1,5.28793,10.842L48.31983,67.1687A8.52964,8.52964,0,0,1,37.47788,72.45663Z"/><path class="cls-1" d="M113.03075,40.84862a19.31677,19.31677,0,0,1,10.81495,3.21826q4.90722,3.21974,6.70117,10.07666l-1.37305.94971.5293-2.00488a15.06639,15.06639,0,0,1,4.80029-6.2251,28.637,28.637,0,0,1,7.70117-4.37891,23.12369,23.12369,0,0,1,8.28321-1.63574,18.4663,18.4663,0,0,1,10.44726,2.74365,16.30275,16.30275,0,0,1,6.06641,7.333,26.34124,26.34124,0,0,1,1.95117,10.39356V92.02343a2.11508,2.11508,0,0,1-.58008,1.477,2.16312,2.16312,0,0,1-3.05859,0,2.10835,2.10835,0,0,1-.582-1.477V61.74071a22.82944,22.82944,0,0,0-1.5293-8.49414,13.31533,13.31533,0,0,0-4.74805-6.11963,14.26106,14.26106,0,0,0-8.38867-2.26855,18.877,18.877,0,0,0-8.86328,2.26855,20.34033,20.34033,0,0,0-7.12305,6.11963,14.14447,14.14447,0,0,0-2.79443,8.49414V92.02343a2.12376,2.12376,0,0,1-.58008,1.477,2.16549,2.16549,0,0,1-3.06055,0,2.11511,2.11511,0,0,1-.58007-1.477V61.21288a22.72454,22.72454,0,0,0-1.42383-8.23,12.81972,12.81972,0,0,0-4.48438-5.90869,13.557,13.557,0,0,0-8.12549-2.21582,18.09646,18.09646,0,0,0-8.59961,2.21582A20.43028,20.43028,0,0,0,97.52,52.9829a13.47,13.47,0,0,0-2.74316,8.23V92.02343a2.16448,2.16448,0,0,1-2.11035,2.11035,1.97474,1.97474,0,0,1-1.53028-.6333,2.113,2.113,0,0,1-.58008-1.477V43.59227a2.16268,2.16268,0,0,1,2.11036-2.11035,1.97781,1.97781,0,0,1,1.52978.63281,2.12448,2.12448,0,0,1,.58057,1.47754v11.501L91.61132,60.4746a15.47831,15.47831,0,0,1,1.79346-7.1753,22.78346,22.78346,0,0,1,4.80127-6.27783,24.35053,24.35053,0,0,1,6.8584-4.48437A19.65991,19.65991,0,0,1,113.03075,40.84862Z"/><path class="cls-1" d="M189.106,94.13378a1.97542,1.97542,0,0,1-1.53027-.6333,2.11508,2.11508,0,0,1-.58008-1.477V18.16307a2.11963,2.11963,0,0,1,.58008-1.47754,2.16667,2.16667,0,0,1,3.06054,0,2.124,2.124,0,0,1,.58008,1.47754V92.02343a2.11939,2.11939,0,0,1-.58008,1.477A1.97827,1.97827,0,0,1,189.106,94.13378Zm36.61426-53.28516a2.02392,2.02392,0,0,1,1.47656.6333,2.14839,2.14839,0,0,1,.63379,1.58252,2.00432,2.00432,0,0,1-.73926,1.583L190.478,75.1411l-.21094-5.06494,34.08106-28.59424A1.91377,1.91377,0,0,1,225.72021,40.84862Zm.63281,53.28516a2.211,2.211,0,0,1-1.583-.73877L199.23583,66.17235l3.165-2.74365,25.42969,27.01221a2.14756,2.14756,0,0,1,.63281,1.58252,1.74415,1.74415,0,0,1-.84473,1.583A2.80246,2.80246,0,0,1,226.353,94.13378Z"/></g></g></svg>