<svg xmlns="http://www.w3.org/2000/svg" viewBox="0 0 32 32"><defs><style>.cls-1,.cls-2,.cls-3,.cls-4,.cls-5{fill:none;}.cls-1{stroke:#38a3a5;}.cls-1,.cls-2,.cls-3,.cls-4{stroke-miterlimit:10;}.cls-2{stroke:#63c196;}.cls-3{stroke:#91cd91;}.cls-4{stroke:#cbe6c6;}</style></defs><g id="Layer_2" data-name="Layer 2"><g id="Layer_1-2" data-name="Layer 1"><path class="cls-1" d="M11.21544,29.11c-.83688,1.29784-.9879,2.24017-2.804,2.386h0a2.4526,2.4526,0,0,1-2.4526-2.4526V2.95664A2.4526,2.4526,0,0,1,8.41142.504h0a2.45259,2.45259,0,0,1,2.4526,2.4526v16.807"/><path class="cls-2" d="M16,20.94845l-5.46416,9.3208a2.45259,2.45259,0,0,1-3.3503.89772l0,0a2.45258,2.45258,0,0,1-.89771-3.3503L18.80276,6.46858a2.4526,2.4526,0,0,1,3.3503-.89771h0a2.50074,2.50074,0,0,1,1.16864,2.64934"/><path class="cls-3" d="M15.13112,18.636a2.47491,2.47491,0,0,1,.08351-.30393L18.60754,6.89665A2.45258,2.45258,0,0,1,21.725,5.37617h0a2.45259,2.45259,0,0,1,1.52047,3.11747L20.394,18.10431"/><path class="cls-4" d="M27.51247,26.43891l0,0a2.45259,2.45259,0,0,1-3.38737.74573l-7.91267-5.97242a2.4526,2.4526,0,0,1-.74574-3.38738l0,0a2.45259,2.45259,0,0,1,3.38737-.74573l7.91267,5.97243A2.45258,2.45258,0,0,1,27.51247,26.43891Z"/><rect class="cls-5" width="32" height="32"/></g></g></svg>